<?xml version="1.0" standalone="no"?>
<!DOCTYPE svg PUBLIC "-//W3C//DTD SVG 20010904//EN"
 "http://www.w3.org/TR/2001/REC-SVG-20010904/DTD/svg10.dtd">
<svg version="1.0" xmlns="http://www.w3.org/2000/svg"
 width="1280.000000pt" height="640.000000pt" viewBox="0 0 1280.000000 640.000000"
 preserveAspectRatio="xMidYMid meet">
<g transform="translate(0.000000,640.000000) scale(0.100000,-0.100000)"
fill="#2196f3" stroke="none">
<path d="M6245 5490 c-159 -4 -208 -9 -237 -23 -24 -11 -62 -17 -107 -17 l-70
0 -52 -97 c-53 -97 -53 -97 -65 -233 -6 -74 -11 -136 -9 -138 1 -1 29 19 60
47 l59 49 110 7 c61 4 136 5 166 3 47 -3 55 -6 55 -23 0 -26 -30 -33 -156 -34
-89 -1 -109 -4 -122 -19 -24 -26 -13 -32 58 -32 53 0 67 -4 103 -31 42 -31 48
-43 35 -75 -11 -30 -705 -829 -722 -831 -9 -1 -151 103 -316 230 l-300 233 2
79 c1 44 8 122 16 173 l14 93 -26 38 c-51 74 -105 111 -203 142 l-92 29 -508
0 c-279 0 -508 -3 -508 -7 0 -3 45 -67 101 -141 l101 -134 95 -44 94 -44 220
0 220 0 92 -87 c51 -49 310 -295 576 -548 266 -253 488 -462 493 -464 7 -2 8
17 4 55 -7 73 7 44 23 -46 6 -36 32 -173 57 -305 l45 -240 10 -749 c8 -672 11
-752 26 -768 30 -33 42 -21 74 83 l31 101 55 35 c49 31 61 35 101 30 37 -4 53
-12 80 -42 33 -36 34 -39 28 -94 -6 -52 -4 -59 18 -80 l24 -23 6 39 c3 21 8
170 12 330 l7 293 47 30 c63 40 200 64 315 55 87 -7 302 -60 323 -80 11 -10
15 -83 21 -316 4 -168 10 -310 15 -317 4 -6 16 -12 26 -12 20 0 24 13 34 118
6 64 43 136 71 139 11 1 45 -10 75 -25 45 -22 63 -39 97 -92 37 -55 43 -73 43
-117 0 -41 5 -58 26 -82 32 -38 71 -42 79 -8 33 150 36 200 51 862 l15 680 39
270 c22 149 62 371 90 494 27 123 50 225 50 227 0 1 -112 96 -250 209 -210
175 -250 212 -255 239 -3 17 -32 218 -65 446 -33 228 -63 429 -66 446 -5 29
-14 35 -112 78 -97 42 -113 46 -177 44 -38 -1 -160 -5 -270 -8z"/>
<path d="M438 5043 c-390 -3 -418 -4 -418 -21 2 -57 108 -160 250 -245 l95
-55 140 -12 c99 -8 349 -9 850 -4 680 7 804 13 798 38 0 4 -65 75 -143 157
l-142 149 -506 -2 c-279 -2 -695 -4 -924 -5z"/>
<path d="M2105 5022 c9 -39 105 -133 219 -215 l100 -72 483 -7 c266 -5 512 -5
546 -1 l62 8 -88 75 c-61 52 -100 95 -129 143 -22 37 -48 71 -57 76 -9 5 -270
11 -579 14 l-564 6 7 -27z"/>
<path d="M8278 5025 c-43 -13 -91 -33 -107 -44 -48 -35 -121 -122 -121 -145 0
-11 9 -88 20 -169 10 -82 17 -154 14 -160 -3 -7 -140 -115 -306 -242 -165
-126 -304 -239 -309 -250 -5 -11 -25 -108 -44 -215 -20 -107 -38 -201 -40
-207 -3 -7 -1 -13 3 -13 4 0 266 247 582 549 l575 550 218 0 219 1 95 43 96
42 104 137 c56 76 103 140 103 143 0 3 -231 5 -512 4 -507 -1 -514 -1 -590
-24z"/>
<path d="M9918 5030 c-196 -3 -358 -7 -361 -10 -2 -3 -23 -36 -47 -75 -30 -49
-68 -91 -126 -140 -46 -38 -84 -73 -84 -76 0 -14 173 -17 611 -10 256 4 472
11 480 16 53 31 193 137 237 179 43 41 82 99 82 122 0 4 -225 3 -792 -6z"/>
<path d="M10792 4890 c-79 -82 -141 -154 -138 -159 15 -24 167 -30 806 -35
420 -3 732 -1 825 5 l150 11 103 61 c118 71 228 174 238 223 l6 31 -264 6
c-144 4 -560 7 -923 7 l-660 0 -143 -150z"/>
<path d="M2610 4538 c0 -62 15 -108 51 -150 l30 -38 122 0 c198 0 275 17 432
96 117 58 135 70 135 91 0 13 -6 25 -12 27 -7 3 -181 7 -385 10 l-373 6 0 -42z"/>
<path d="M9668 4563 l-238 -3 0 -28 c0 -26 10 -33 135 -96 158 -78 235 -96
432 -96 l121 0 35 48 c28 38 36 60 42 115 l7 67 -148 -2 c-82 -2 -256 -4 -386
-5z"/>
<path d="M210 4548 c0 -7 27 -38 61 -70 49 -45 79 -64 153 -92 l92 -36 997 0
c548 0 997 2 997 5 0 3 -23 50 -50 105 l-50 100 -1100 0 c-863 0 -1100 -3
-1100 -12z"/>
<path d="M3590 4556 c0 -2 23 -21 51 -41 l52 -37 -6 -68 -6 -67 62 -29 62 -29
3 -57 3 -56 67 -21 68 -20 21 -68 c12 -37 24 -81 28 -98 8 -37 20 -45 71 -45
36 0 45 -5 69 -37 61 -82 86 -102 144 -113 95 -19 91 -16 91 -73 0 -29 4 -57
8 -64 4 -7 37 -13 77 -15 l70 -3 35 -70 35 -70 94 -21 c51 -12 96 -26 100 -31
73 -107 64 -99 143 -107 l73 -6 60 -66 60 -65 79 3 80 3 31 -55 c24 -43 37
-56 58 -58 15 -2 27 0 27 5 0 4 -14 100 -30 213 l-31 205 -42 42 c-23 24 -278
263 -567 532 l-525 490 -307 0 c-170 1 -308 -1 -308 -3z"/>
<path d="M8542 4488 c-612 -567 -1063 -996 -1067 -1012 -10 -43 -55 -362 -55
-389 0 -24 4 -28 23 -25 15 2 33 22 57 62 l34 59 77 -7 77 -6 59 65 60 66 72
6 c72 6 74 7 102 47 51 70 55 73 135 90 44 10 86 19 95 22 9 3 27 31 39 64 12
33 28 64 34 69 7 6 43 11 81 13 l70 3 3 62 3 62 37 10 c20 5 53 12 73 15 36 6
70 36 124 109 17 24 35 37 50 37 12 0 36 3 53 6 27 6 32 12 41 53 6 25 19 70
29 100 19 58 20 58 109 81 l42 11 3 57 3 57 61 29 61 28 -5 68 -5 68 52 38
c28 21 51 42 51 46 0 4 -135 8 -300 8 l-300 0 -78 -72z"/>
<path d="M10350 4458 c-28 -57 -50 -106 -50 -110 0 -5 446 -8 992 -8 l992 0
92 36 c74 28 104 47 153 92 108 101 214 92 -1035 92 l-1095 0 -49 -102z"/>
<path d="M3410 4373 c-52 -19 -167 -55 -255 -80 -135 -38 -179 -46 -285 -52
-119 -6 -125 -7 -128 -28 -5 -32 25 -71 92 -120 58 -43 61 -44 115 -38 187 21
269 45 421 121 68 34 92 52 123 93 30 41 37 59 37 96 0 30 -4 45 -12 44 -7 0
-56 -16 -108 -36z"/>
<path d="M9280 4358 c0 -33 9 -55 37 -96 33 -48 47 -59 147 -107 124 -61 181
-78 338 -101 l108 -16 54 39 c69 49 108 96 104 125 -3 22 -8 23 -123 29 -101
4 -145 12 -285 51 -91 26 -209 63 -263 82 -54 20 -102 36 -107 36 -6 0 -10
-19 -10 -42z"/>
<path d="M426 4221 c-10 -16 62 -96 116 -128 29 -18 82 -41 118 -52 63 -20 89
-21 1033 -21 l969 0 -7 32 c-10 43 -64 161 -78 170 -17 11 -2145 10 -2151 -1z"/>
<path d="M10223 4208 c-22 -36 -63 -132 -69 -163 l-6 -35 960 0 961 0 78 25
c43 14 98 38 122 54 42 28 111 104 111 122 0 5 -482 9 -1074 9 -849 0 -1076
-3 -1083 -12z"/>
<path d="M3466 4100 c-170 -81 -205 -94 -355 -129 -91 -22 -185 -43 -207 -47
-23 -3 -47 -9 -53 -14 -19 -11 -3 -51 39 -99 l39 -45 88 -7 88 -6 160 70 c190
83 343 181 394 251 29 41 32 52 25 79 -5 17 -14 32 -19 33 -6 2 -95 -37 -199
-86z"/>
<path d="M9130 4161 c-17 -32 -12 -51 25 -101 46 -63 186 -154 366 -238 l144
-67 102 0 102 0 37 35 c20 19 43 50 51 69 17 39 11 46 -46 56 -20 3 -114 24
-209 46 -160 38 -187 47 -359 130 -102 49 -189 89 -194 89 -4 0 -13 -9 -19
-19z"/>
<path d="M3779 3990 c-14 -4 -68 -39 -120 -78 -57 -42 -158 -102 -254 -150
-211 -106 -208 -105 -300 -111 l-80 -6 3 -40 c2 -22 14 -57 28 -77 l24 -38 94
0 c88 0 99 3 185 40 131 59 392 256 455 344 56 79 63 127 19 125 -16 0 -40 -4
-54 -9z"/>
<path d="M8956 3992 c-14 -13 -4 -62 19 -96 57 -84 77 -103 235 -220 213 -158
295 -196 428 -196 l89 0 27 40 c17 26 26 53 26 80 l0 40 -72 0 c-72 0 -76 2
-263 93 -133 65 -221 117 -294 170 -57 42 -107 77 -110 77 -3 0 -23 4 -43 9
-20 5 -39 6 -42 3z"/>
<path d="M1178 3873 c-329 -2 -498 -7 -498 -13 0 -24 94 -102 167 -138 151
-76 133 -74 653 -73 256 1 666 4 912 7 l446 7 -46 57 c-26 32 -59 80 -74 109
l-28 51 -517 -2 c-285 -2 -742 -4 -1015 -5z"/>
<path d="M10065 3813 c-16 -31 -49 -79 -73 -107 l-43 -51 343 -6 c189 -3 598
-7 909 -8 631 -1 604 -4 752 71 71 35 167 114 167 136 0 10 -836 22 -1539 22
l-486 0 -30 -57z"/>
<path d="M3839 3686 c-115 -105 -137 -120 -267 -185 -78 -39 -188 -90 -245
-112 -56 -22 -106 -44 -110 -49 -5 -4 -6 -33 -2 -65 7 -53 10 -58 43 -72 69
-29 92 -27 186 17 93 43 175 101 353 251 153 129 228 213 236 266 6 36 4 44
-12 53 -11 5 -28 10 -38 10 -11 0 -75 -51 -144 -114z"/>
<path d="M8787 3783 c-4 -3 -7 -27 -7 -52 0 -45 2 -48 98 -142 187 -183 372
-325 500 -384 l82 -38 60 18 c66 20 73 30 74 110 l1 39 -135 56 c-74 31 -186
82 -248 114 -98 49 -131 73 -239 172 -95 87 -132 114 -152 114 -15 0 -31 -3
-34 -7z"/>
<path d="M4165 3641 c-24 -11 -70 -51 -115 -101 -143 -160 -322 -307 -573
-472 -8 -5 39 -74 103 -151 4 -4 50 13 103 38 95 45 99 48 282 238 176 180
190 198 237 292 45 88 49 103 42 135 -11 41 -25 45 -79 21z"/>
<path d="M8570 3624 c-14 -37 -14 -38 34 -139 46 -98 70 -127 310 -373 99
-101 122 -119 207 -162 l96 -49 25 27 c35 39 86 106 90 119 2 6 -59 54 -135
106 -157 108 -308 237 -428 369 -76 83 -137 127 -177 128 -7 0 -17 -12 -22
-26z"/>
<path d="M1160 3479 c97 -85 194 -139 295 -165 l95 -24 745 2 c559 2 747 6
756 15 9 9 -6 33 -68 105 l-80 93 -339 6 c-186 3 -589 7 -894 7 l-555 1 45
-40z"/>
<path d="M10755 3509 l-850 -8 -20 -24 c-11 -14 -47 -57 -79 -96 -46 -56 -56
-75 -47 -84 9 -9 192 -13 753 -15 l740 -2 96 25 c67 18 116 39 160 67 88 57
183 134 175 142 -3 3 -22 5 -42 4 -20 -1 -418 -5 -886 -9z"/>
<path d="M4363 3458 c-38 -24 -104 -96 -247 -268 -169 -203 -206 -242 -273
-288 -43 -29 -89 -61 -102 -71 l-23 -18 32 -56 c28 -50 38 -58 86 -77 30 -11
59 -20 65 -20 30 0 154 88 225 162 64 64 248 308 309 407 14 24 34 133 35 188
0 42 -4 54 -19 63 -28 14 -31 14 -88 -22z"/>
<path d="M8350 3454 c-14 -35 -12 -71 5 -154 13 -64 26 -86 132 -238 158 -225
249 -319 380 -392 l42 -23 61 23 c57 21 63 27 91 81 l29 58 -103 71 c-99 68
-113 83 -296 305 -143 174 -205 242 -242 264 -61 38 -86 39 -99 5z"/>
<path d="M4583 3280 c-45 -35 -64 -62 -153 -225 -98 -178 -107 -190 -236 -329
-74 -79 -134 -148 -134 -153 0 -4 18 -27 40 -50 39 -43 40 -43 109 -43 l70 0
67 78 c37 42 103 133 148 202 129 198 211 452 171 529 -8 17 -19 31 -23 31 -4
0 -30 -18 -59 -40z"/>
<path d="M8146 3282 c-22 -42 -6 -136 47 -285 52 -142 144 -296 268 -443 l71
-84 69 0 c67 0 69 1 106 41 21 22 38 47 38 54 0 7 -58 76 -130 154 -123 134
-136 152 -230 323 -86 156 -107 188 -153 225 -29 24 -57 43 -62 43 -5 0 -16
-13 -24 -28z"/>
<path d="M4866 3162 c-33 -27 -52 -54 -72 -102 -94 -225 -212 -417 -395 -648
l-43 -53 30 -29 c28 -29 31 -29 102 -23 70 6 77 9 142 59 37 30 90 82 118 116
54 69 149 262 207 423 35 96 36 104 30 188 -4 48 -8 87 -9 87 0 0 -16 4 -33 9
-29 8 -37 6 -77 -27z"/>
<path d="M7875 3183 c-36 -9 -42 -22 -48 -105 -5 -76 -3 -88 33 -187 54 -150
143 -333 197 -407 42 -57 139 -146 188 -171 11 -6 50 -13 87 -15 63 -5 68 -4
93 22 31 32 32 29 -40 120 -128 164 -208 285 -277 425 -41 83 -83 172 -93 198
-12 32 -34 62 -64 88 -25 21 -48 38 -51 38 -3 -1 -14 -4 -25 -6z"/>
<path d="M1680 3151 c0 -30 178 -114 431 -203 175 -62 193 -66 369 -87 165
-20 225 -22 555 -19 323 3 370 5 373 18 4 23 -147 235 -193 269 l-40 30 -747
1 c-414 0 -748 -4 -748 -9z"/>
<path d="M9594 3120 c-55 -40 -208 -262 -192 -278 9 -9 116 -12 383 -12 330 0
390 3 555 24 169 21 199 28 345 80 266 95 435 175 435 207 0 5 -321 9 -743 9
l-743 0 -40 -30z"/>
<path d="M5134 3038 c-54 -53 -55 -54 -95 -198 -27 -95 -65 -196 -111 -295
-67 -144 -73 -153 -152 -230 -76 -73 -83 -84 -79 -112 4 -23 16 -39 44 -58 39
-25 41 -26 127 -14 84 11 89 13 136 57 52 50 65 75 156 297 60 148 81 248 96
450 6 88 6 92 -21 123 -15 18 -31 32 -37 32 -5 0 -34 -24 -64 -52z"/>
<path d="M7587 3052 c-25 -26 -27 -34 -27 -116 0 -146 34 -311 92 -455 91
-225 111 -263 161 -307 43 -38 53 -42 133 -52 82 -11 89 -10 121 9 36 23 53
47 53 78 0 12 -30 46 -76 88 -74 66 -79 73 -151 223 -53 110 -87 199 -118 308
-44 153 -44 153 -96 200 -28 26 -55 48 -58 50 -4 1 -19 -10 -34 -26z"/>
<path d="M5381 2878 c-4 -13 -16 -57 -26 -98 -9 -41 -44 -160 -76 -265 -58
-185 -62 -193 -140 -308 -69 -102 -79 -120 -67 -134 24 -29 79 -44 183 -50
l102 -6 41 58 42 58 0 384 0 383 -25 0 c-17 0 -28 -7 -34 -22z"/>
<path d="M7380 2504 l0 -386 38 -54 c42 -61 42 -61 197 -44 74 9 94 15 114 35
l24 24 -81 123 c-76 117 -83 132 -137 303 -31 99 -63 209 -71 245 -32 137 -33
140 -59 140 l-25 0 0 -386z"/>
<path d="M6147 2063 c-4 -54 -10 -187 -13 -295 l-7 -196 121 -61 120 -60 126
71 126 70 -5 117 c-3 64 -8 191 -11 284 l-6 167 -223 0 -222 0 -6 -97z"/>
<path d="M5793 1682 c-20 -15 -23 -28 -25 -107 l-3 -90 -170 -92 c-154 -83
-171 -95 -189 -132 -11 -22 -17 -43 -15 -46 3 -3 52 11 109 30 66 22 123 35
156 35 89 0 84 11 84 -191 0 -98 4 -179 9 -179 4 0 22 5 40 11 22 8 31 17 31
32 0 12 5 74 10 139 8 111 10 119 46 172 42 64 43 64 229 97 66 11 122 23 125
26 3 2 -5 13 -16 22 -14 11 -73 26 -168 41 -106 17 -149 28 -155 39 -5 9 -15
49 -22 90 -8 46 -21 83 -33 98 -20 22 -22 22 -43 5z"/>
</g>
</svg>
